<?xml version="1.0" encoding="iso-8859-1"?>
<!-- Uploaded to: SVG Repo, www.svgrepo.com, Generator: SVG Repo Mixer Tools -->
<svg fill="#000000" height="800px" width="800px" version="1.1" id="Layer_1" xmlns="http://www.w3.org/2000/svg" xmlns:xlink="http://www.w3.org/1999/xlink" 
	 viewBox="0 0 360 360" xml:space="preserve">
<g id="XMLID_89_">
	<path id="XMLID_90_" d="M180,220c-68.925,0-125,56.075-125,125c0,8.284,6.716,15,15,15h220c8.284,0,15-6.716,15-15
		C305,276.075,248.925,220,180,220z M86.182,330c6.434-40.392,38.427-72.355,78.817-78.793V285c0,8.284,6.716,15,15,15
		s15-6.716,15-15v-33.793c40.391,6.438,72.383,38.401,78.817,78.793H86.182z"/>
	<path id="XMLID_93_" d="M123.498,92.928C118.101,102.399,115,113.341,115,125c0,35.841,29.159,65,65,65s65-29.159,65-65
		c0-11.658-3.101-22.601-8.498-32.071l17.729-53.186c2.62-7.859-1.628-16.354-9.487-18.974l-60-20c-3.079-1.025-6.408-1.025-9.487,0
		l-60,20c-7.859,2.62-12.106,11.114-9.487,18.974L123.498,92.928z M180,160c-19.299,0-35-15.701-35-35
		c0-5.365,1.217-10.451,3.384-15h63.232c2.167,4.549,3.384,9.635,3.384,15C215,144.298,199.299,160,180,160z M180,30.811
		l41.026,13.676l-8.157,24.47C203.218,63.275,191.987,60,180,60c-11.987,0-23.218,3.275-32.87,8.957l-8.157-24.47L180,30.811z"/>
</g>
</svg>